# xmcd CD database file
#
# Track frame offsets:
#	150
#	16717
#	46172
#
# Disc length: 832 seconds
#
# Revision: 3
# Processed by: cddbd v1.5.1PL0 Copyright (c) Steve Scherf et al.
# Submitted via: CDex 1.50Beta3
#
DISCID=14033e03
DTITLE=岡崎律子 - L'aquoiboniste(無造作紳士)
DYEAR=1999
DGENRE=Vocal
TTITLE0=L'aquoiboniste(無造作紳士)
TTITLE1=Moonshadow
TTITLE2=L'aquoiboniste(無造作紳士)-instrumental-
EXTD=YEAR: 1999
EXTT0=
EXTT1=
EXTT2=
PLAYORDER=
